# xmcd
# 
# Track frame offsets:
#     150
#     15307
#     36960
#     55675
#     78052
#     100770
#     116754
#     135317
#     160242
#     181367
#     203335
#     218307
#     235355
#     257185
# 
# Disc length: 3750
# 
# Revision: 6
# Processed by: cddbd v1.5.2PL0 Copyright (c) Steve Scherf et al.
# Submitted via: BonkEnc v1.0
# 
DISCID=a50ea40e
DTITLE=Eppu Normaali - Repullinen Hittejä [CD 1)
DYEAR=1996
DGENRE=Rock
TTITLE0=Murheellisten laulujen maa
TTITLE1=Tahroja paperilla
TTITLE2=Nyt reppu jupiset riimisi rupiset
TTITLE3=Afrikka, sarvikuonojen maa
TTITLE4=Voi kuinka me sinua kaivataan
TTITLE5=Suomi-ilmiö
TTITLE6=Lensin matalalla
TTITLE7=Kun olet poissa
TTITLE8=Kitara, taivas ja tähdet
TTITLE9=Linnunradan laidalla
TTITLE10=Nuori poika
TTITLE11=Taivaassa perseet tervataan
TTITLE12=En saa mielestä sinua
TTITLE13=Hipit rautaa
EXTD=POKOCD 200 - 1996
EXTT0=
EXTT1=
EXTT2=
EXTT3=
EXTT4=
EXTT5=
EXTT6=
EXTT7=
EXTT8=
EXTT9=
EXTT10=
EXTT11=
EXTT12=
EXTT13=
PLAYORDER=
